<svg width="20" height="20" viewBox="0 0 20 20" fill="none" xmlns="http://www.w3.org/2000/svg">
<path d="M18.3334 10H1.66675" stroke="#DEE2E6" stroke-width="2" stroke-linecap="round" stroke-linejoin="round"/>
<path d="M4.54175 4.25898L1.66675 10.0007V15.0007C1.66675 15.4427 1.84234 15.8666 2.1549 16.1792C2.46746 16.4917 2.89139 16.6673 3.33341 16.6673H16.6667C17.1088 16.6673 17.5327 16.4917 17.8453 16.1792C18.1578 15.8666 18.3334 15.4427 18.3334 15.0007V10.0007L15.4584 4.25898C15.3204 3.98131 15.1077 3.74763 14.8442 3.58422C14.5807 3.42081 14.2768 3.33415 13.9667 3.33398H6.03341C5.72334 3.33415 5.41947 3.42081 5.15595 3.58422C4.89244 3.74763 4.67973 3.98131 4.54175 4.25898Z" stroke="#DEE2E6" stroke-width="2" stroke-linecap="round" stroke-linejoin="round"/>
<path d="M5 13.334H5.00833" stroke="#DEE2E6" stroke-width="2" stroke-linecap="round" stroke-linejoin="round"/>
<path d="M8.33325 13.334H8.34159" stroke="#DEE2E6" stroke-width="2" stroke-linecap="round" stroke-linejoin="round"/>
</svg>
