<svg width="22" height="22" viewBox="0 0 22 22" fill="none" xmlns="http://www.w3.org/2000/svg">
<g clip-path="url(#clip0_513_2)">
<path d="M15.5833 2.75001C15.8241 2.50925 16.1099 2.31827 16.4245 2.18798C16.739 2.05768 17.0762 1.99062 17.4167 1.99062C17.7572 1.99062 18.0943 2.05768 18.4089 2.18798C18.7234 2.31827 19.0093 2.50925 19.25 2.75001C19.4908 2.99076 19.6817 3.27658 19.812 3.59115C19.9423 3.90571 20.0094 4.24286 20.0094 4.58334C20.0094 4.92382 19.9423 5.26097 19.812 5.57553C19.6817 5.8901 19.4908 6.17592 19.25 6.41667L6.87501 18.7917L1.83334 20.1667L3.20834 15.125L15.5833 2.75001Z" stroke="black" stroke-width="2" stroke-linecap="round" stroke-linejoin="round"/>
</g>
<defs>
<clipPath id="clip0_513_2">
<rect width="22" height="22" fill="white"/>
</clipPath>
</defs>
</svg>
