<svg width="20" height="20" viewBox="0 0 20 20" fill="none" xmlns="http://www.w3.org/2000/svg">
<g clip-path="url(#clip0_5036_30233)">
<path d="M7.50008 18.3327C7.96032 18.3327 8.33341 17.9596 8.33341 17.4993C8.33341 17.0391 7.96032 16.666 7.50008 16.666C7.03984 16.666 6.66675 17.0391 6.66675 17.4993C6.66675 17.9596 7.03984 18.3327 7.50008 18.3327Z" stroke="#DEE2E6" stroke-width="2" stroke-linecap="round" stroke-linejoin="round"/>
<path d="M16.6666 18.3327C17.1268 18.3327 17.4999 17.9596 17.4999 17.4993C17.4999 17.0391 17.1268 16.666 16.6666 16.666C16.2063 16.666 15.8333 17.0391 15.8333 17.4993C15.8333 17.9596 16.2063 18.3327 16.6666 18.3327Z" stroke="#DEE2E6" stroke-width="2" stroke-linecap="round" stroke-linejoin="round"/>
<path d="M0.833252 0.833984H4.16658L6.39992 11.9923C6.47612 12.376 6.68484 12.7206 6.98954 12.9659C7.29424 13.2112 7.6755 13.3415 8.06658 13.334H16.1666C16.5577 13.3415 16.9389 13.2112 17.2436 12.9659C17.5483 12.7206 17.757 12.376 17.8333 11.9923L19.1666 5.00065H4.99992" stroke="#DEE2E6" stroke-width="2" stroke-linecap="round" stroke-linejoin="round"/>
</g>
<defs>
<clipPath id="clip0_5036_30233">
<rect width="20" height="20" fill="white"/>
</clipPath>
</defs>
</svg>
