<svg width="20" height="20" viewBox="0 0 20 20" fill="none" xmlns="http://www.w3.org/2000/svg">
<g clip-path="url(#clip0_5195_23713)">
<path d="M13.3335 2.5H0.833496V13.3333H13.3335V2.5Z" stroke="#DEE2E6" stroke-width="2" stroke-linecap="round" stroke-linejoin="round"/>
<path d="M13.3335 6.66602H16.6668L19.1668 9.16602V13.3327H13.3335V6.66602Z" stroke="#DEE2E6" stroke-width="2" stroke-linecap="round" stroke-linejoin="round"/>
<path d="M4.58333 17.5007C5.73393 17.5007 6.66667 16.5679 6.66667 15.4173C6.66667 14.2667 5.73393 13.334 4.58333 13.334C3.43274 13.334 2.5 14.2667 2.5 15.4173C2.5 16.5679 3.43274 17.5007 4.58333 17.5007Z" stroke="#DEE2E6" stroke-width="2" stroke-linecap="round" stroke-linejoin="round"/>
<path d="M15.4168 17.5007C16.5674 17.5007 17.5002 16.5679 17.5002 15.4173C17.5002 14.2667 16.5674 13.334 15.4168 13.334C14.2662 13.334 13.3335 14.2667 13.3335 15.4173C13.3335 16.5679 14.2662 17.5007 15.4168 17.5007Z" stroke="#DEE2E6" stroke-width="2" stroke-linecap="round" stroke-linejoin="round"/>
</g>
<defs>
<clipPath id="clip0_5195_23713">
<rect width="20" height="20" fill="white"/>
</clipPath>
</defs>
</svg>
